<svg xmlns="http://www.w3.org/2000/svg" width="60.097" height="60.088" viewBox="0 0 60.097 60.088">
  <g id="fishing-boat" transform="translate(0.001 -0.03)">
    <path id="Path_180" data-name="Path 180" d="M53.878,218.38a4.144,4.144,0,0,1-4.144,4.144H15.494c-6.094,0-11.5.149-13.431-5.773l-1.955-6a2.064,2.064,0,0,1,1.921-2.727H53.878Zm0,0" transform="translate(0 -181.055)" fill="#2d75bb"/>
    <path id="Path_181" data-name="Path 181" d="M57.028,293.2c-6.478,0-7-5.18-13.48-5.18s-6.982,4.144-13.457,4.144-5.967-4.144-12.443-4.144-6.985,5.18-13.458,5.18a7.188,7.188,0,0,1-4.144-1.036v18.648H60.136V292.033C59.165,292.422,58.539,293.2,57.028,293.2Zm0,0" transform="translate(-0.042 -250.695)" fill="#87cee9"/>
    <path id="Path_182" data-name="Path 182" d="M416.047,176.02h2.072a4.144,4.144,0,0,1,4.144,4.144v4.144h-6.216Zm0,0" transform="translate(-362.169 -153.199)" fill="#7d8d9c"/>
    <path id="Path_183" data-name="Path 183" d="M420.191,246.236h-4.144V240.02h6.216Zm0,0" transform="translate(-362.169 -208.911)" fill="#aabece"/>
    <path id="Path_184" data-name="Path 184" d="M57.371,112.02l-9.324,12.432h14.5V112.02Zm0,0" transform="translate(-41.826 -97.487)" fill="#cfdfe8"/>
    <path id="Path_185" data-name="Path 185" d="M160.047,112.02h6.216v12.432h-6.216Zm0,0" transform="translate(-139.322 -97.487)" fill="#7d8d9c"/>
    <path id="Path_186" data-name="Path 186" d="M105.088,149.2a1.036,1.036,0,0,1-.861-1.611l2.072-3.108a1.036,1.036,0,1,1,1.724,1.15l-2.072,3.108A1.036,1.036,0,0,1,105.088,149.2Zm0,0" transform="translate(-90.578 -125.343)" fill="#5a6470"/>
    <g id="Group_504" data-name="Group 504" transform="translate(3.113 46.648)">
      <path id="Path_187" data-name="Path 187" d="M187.406,364.157a3.156,3.156,0,0,1-2.522-1.409c-.441-.53-.6-.663-.932-.663s-.518.162-.933.663a2.964,2.964,0,0,1-5.046,0c-.415-.5-.582-.664-.933-.664a1.036,1.036,0,0,1,0-2.072,3.156,3.156,0,0,1,2.524,1.408c.415.5.582.664.933.664s.518-.162.932-.664a2.962,2.962,0,0,1,5.044,0c.441.529.6.663.933.663a1.036,1.036,0,1,1,0,2.072Zm0,0" transform="translate(-156.325 -360.012)" fill="#fff"/>
      <path id="Path_188" data-name="Path 188" d="M35.443,364.164a3.153,3.153,0,0,1-2.522-1.409c-.441-.53-.6-.663-.932-.663s-.513.162-.933.663a2.96,2.96,0,0,1-5.041,0c-.414-.5-.582-.664-.932-.664a1.036,1.036,0,0,1,0-2.072,3.16,3.16,0,0,1,2.525,1.409c.414.5.581.663.932.663s.518-.161.932-.664a2.956,2.956,0,0,1,5.038,0c.441.53.6.663.933.663a1.036,1.036,0,1,1,0,2.072Zm0,0" transform="translate(-24.047 -360.019)" fill="#fff"/>
      <path id="Path_189" data-name="Path 189" d="M115.443,412.164a3.153,3.153,0,0,1-2.522-1.409c-.441-.53-.6-.663-.932-.663s-.518.162-.933.663a2.96,2.96,0,0,1-5.041,0c-.414-.5-.582-.664-.932-.664a1.036,1.036,0,0,1,0-2.072,3.16,3.16,0,0,1,2.525,1.409c.414.5.581.663.932.663s.518-.161.932-.664a2.963,2.963,0,0,1,5.044,0c.44.53.6.663.932.663a1.036,1.036,0,0,1,0,2.072Zm0,0" transform="translate(-93.687 -401.802)" fill="#fff"/>
    </g>
    <path id="Path_190" data-name="Path 190" d="M296.744,10.389a4.857,4.857,0,0,0,.153-1.151,4.472,4.472,0,0,0-4.325-4.6,4.028,4.028,0,0,0-1.37.259,6.391,6.391,0,0,0-12.51.48,4.116,4.116,0,0,0-2.335-.739,4.471,4.471,0,0,0-4.324,4.6,4.826,4.826,0,0,0,.153,1.151Zm0,0" transform="translate(-236.803 0)" fill="#87cee9"/>
    <path id="Path_191" data-name="Path 191" d="M22.7,24.3a3.44,3.44,0,0,0,.14-.921,3.834,3.834,0,0,0-3.964-3.683,4.169,4.169,0,0,0-1.256.207,5.915,5.915,0,0,0-5.681-3.892,5.87,5.87,0,0,0-5.788,4.275,4.157,4.157,0,0,0-2.14-.59A3.833,3.833,0,0,0,.047,23.376a3.44,3.44,0,0,0,.14.921Zm0,0" transform="translate(-0.042 -13.908)" fill="#87cee9"/>
    <path id="Path_192" data-name="Path 192" d="M240.335,141.316a1.036,1.036,0,0,1-1.036-1.036V110.148c0-.163-.048-4.056-2.59-4.056s-2.59,3.893-2.59,4.058v7.338a1.036,1.036,0,0,1-2.072,0v-7.34c0-2.12.974-6.128,4.662-6.128s4.662,4.008,4.662,6.128V140.28A1.036,1.036,0,0,1,240.335,141.316Zm0,0" transform="translate(-201.997 -90.523)" fill="#7d8d9c"/>
    <path id="Path_193" data-name="Path 193" d="M305.766,361.922l.641,1.154-.641,1.154a4.549,4.549,0,0,1-4.008,1.954H300.7a4.55,4.55,0,0,1-4.008-1.954l-.641-1.154.641-1.154a4.552,4.552,0,0,1,4.008-1.954h1.061A4.551,4.551,0,0,1,305.766,361.922Zm0,0" transform="translate(-257.709 -313.318)" fill="#195c85"/>
    <path id="Path_194" data-name="Path 194" d="M376.047,363.128l6.216,3.108V360.02Zm0,0" transform="translate(-327.349 -313.37)" fill="#195c85"/>
  </g>
</svg>
