<svg xmlns="http://www.w3.org/2000/svg" width="60.206" height="60.204" viewBox="0 0 60.206 60.204">
  <g id="Flat" transform="translate(-24 -24.013)">
    <path id="Path_221" data-name="Path 221" d="M77.977,47.886l-6.228,8.3H75.9a14.7,14.7,0,0,1-12.287,14.5l-3.98.664a2.076,2.076,0,0,1-2.417-2.048V40.016a8.3,8.3,0,1,0-6.228,0V69.31a2.076,2.076,0,0,1-2.417,2.048l-3.98-.663A14.7,14.7,0,0,1,32.3,56.191h4.152l-6.228-8.3L24,56.191h4.152a22.018,22.018,0,0,0,15.97,21.171l.009,0a15.33,15.33,0,0,1,8.934,6.853h2.076a15.33,15.33,0,0,1,8.934-6.853l.009,0A22.018,22.018,0,0,0,80.053,56.191h4.152ZM54.1,28.164a4.152,4.152,0,1,1-4.152,4.152A4.152,4.152,0,0,1,54.1,28.164Z" fill="#677b92"/>
    <rect id="Rectangle_320" data-name="Rectangle 320" width="16.608" height="4.152" rx="2.076" transform="translate(45.799 42.696)" fill="#677b92"/>
    <path id="Path_222" data-name="Path 222" d="M232,200h6.228v2.076H232Z" transform="translate(-181.011 -153.152)" fill="#3d5671"/>
    <path id="Path_223" data-name="Path 223" d="M232,360h6.228v2.076H232Z" transform="translate(-181.011 -292.391)" fill="#3d5671"/>
    <g id="Group_507" data-name="Group 507" transform="translate(38.532 30.24)">
      <path id="Path_224" data-name="Path 224" d="M163.345,223.282a14.642,14.642,0,0,1-2.265.564l-1.876.313a6.392,6.392,0,0,0-.917-1.366,6.257,6.257,0,0,0-1.618-1.322c-.135-.077-.272-.149-.414-.215a4.981,4.981,0,0,0-.837-.308,5.688,5.688,0,0,0-1.466-.187H146.51a10.561,10.561,0,0,1-3.377-.551,10.44,10.44,0,0,1-1.914-.867,10.547,10.547,0,0,1-3.028-2.626,10.38,10.38,0,0,1-1.116-1.761,10.146,10.146,0,0,1-1.024-3.537c-.032-.308-.051-.62-.053-.936a10.7,10.7,0,0,1,.051-1.141A10.379,10.379,0,0,1,146.377,200h2.076v4.152h-1.971A6.391,6.391,0,0,0,142,205.989a6.217,6.217,0,0,0-1.227,1.7,6.089,6.089,0,0,0-.535,1.65,6.251,6.251,0,0,0,0,2.076,6.159,6.159,0,0,0,.522,1.647,6.261,6.261,0,0,0,2.709,2.82,6.129,6.129,0,0,0,2.044.663h0a6.133,6.133,0,0,0,.865.061h7.3a10.687,10.687,0,0,1,1.741.141,10.032,10.032,0,0,1,4.024,1.588c.08.056.162.113.241.17A10.523,10.523,0,0,1,163.345,223.282Z" transform="translate(-135.997 -183.391)" fill="#f5bb60"/>
      <path id="Path_225" data-name="Path 225" d="M321.678,429.329l-.01,0-.013,0h0a14.746,14.746,0,0,0-1.653.58v6.27h4.152V428.46A21.875,21.875,0,0,1,321.678,429.329Z" transform="translate(-296.125 -382.208)" fill="#f5bb60"/>
      <path id="Path_226" data-name="Path 226" d="M271.57,82.278a10.693,10.693,0,0,1-.051,1.141,10.388,10.388,0,0,1-10.33,9.342h-2.076V88.608h1.971a6.213,6.213,0,0,0,.884-.062h0a6.372,6.372,0,0,0,3.572-1.748,6.224,6.224,0,0,0,1.242-1.7,6.065,6.065,0,0,0,.548-1.676,6.249,6.249,0,0,0,0-2.076,6.177,6.177,0,0,0-.536-1.676,6.269,6.269,0,0,0-2.738-2.813,6.149,6.149,0,0,0-2.067-.649h0a6.022,6.022,0,0,0-.8-.052h-3.114a2.076,2.076,0,0,1,0-4.152h3.114a10.511,10.511,0,0,1,3.27.559,10.4,10.4,0,0,1,1.916.873,10.529,10.529,0,0,1,3,2.6,10.39,10.39,0,0,1,1.118,1.761,10.156,10.156,0,0,1,1.026,3.544C271.55,81.65,271.568,81.962,271.57,82.278Z" transform="translate(-240.429 -72)" fill="#f5bb60"/>
    </g>
    <g id="Group_508" data-name="Group 508" transform="translate(38.532 30.24)">
      <path id="Path_227" data-name="Path 227" d="M347.569,144.936a10.693,10.693,0,0,1-.051,1.141H343.33a6.249,6.249,0,0,0,0-2.076h4.186C347.548,144.308,347.566,144.62,347.569,144.936Z" transform="translate(-316.428 -134.658)" fill="#edb04e"/>
      <path id="Path_228" data-name="Path 228" d="M306.556,77.193l-2.319,3.419a6.149,6.149,0,0,0-2.067-.649l2.469-3.643a10.4,10.4,0,0,1,1.916.873Z" transform="translate(-280.608 -75.759)" fill="#edb04e"/>
      <path id="Path_229" data-name="Path 229" d="M334.689,104.881l-3.7,1.867a6.256,6.256,0,0,0-1.224-1.708l3.8-1.92A10.394,10.394,0,0,1,334.689,104.881Z" transform="translate(-304.627 -99.082)" fill="#edb04e"/>
      <path id="Path_230" data-name="Path 230" d="M306.406,197.955a10.281,10.281,0,0,1-1.922.862l-2.474-3.691a6.366,6.366,0,0,0,2.059-.655Z" transform="translate(-280.469 -178.579)" fill="#edb04e"/>
      <path id="Path_231" data-name="Path 231" d="M334.52,174.75a10.317,10.317,0,0,1-1.1,1.772l-3.88-1.9a6.225,6.225,0,0,0,1.242-1.7Z" transform="translate(-304.427 -159.825)" fill="#edb04e"/>
      <path id="Path_232" data-name="Path 232" d="M282.076,72v4.151H280V72h2.076Z" transform="translate(-261.315 -72)" fill="#edb04e"/>
      <path id="Path_233" data-name="Path 233" d="M140.15,272.917a6.211,6.211,0,0,0,.086,1.159H136.05c-.032-.308-.051-.62-.053-.936a10.7,10.7,0,0,1,.051-1.141h4.188A6.261,6.261,0,0,0,140.15,272.917Z" transform="translate(-135.997 -246.049)" fill="#edb04e"/>
      <path id="Path_234" data-name="Path 234" d="M180.532,323.083l-2.378,3.662a10.437,10.437,0,0,1-1.914-.867l2.249-3.458A6.13,6.13,0,0,0,180.532,323.083Z" transform="translate(-171.018 -289.927)" fill="#edb04e"/>
      <path id="Path_235" data-name="Path 235" d="M149.2,302.4l-3.78,1.94a10.379,10.379,0,0,1-1.116-1.761l3.684-1.891A6.254,6.254,0,0,0,149.2,302.4Z" transform="translate(-143.223 -271.017)" fill="#edb04e"/>
      <path id="Path_236" data-name="Path 236" d="M180.561,207.7a6.342,6.342,0,0,0-2.054.659l-2.317-3.5a10.355,10.355,0,0,1,1.922-.859Z" transform="translate(-170.975 -186.873)" fill="#edb04e"/>
      <path id="Path_237" data-name="Path 237" d="M149.224,232.924l-3.815-1.974a10.249,10.249,0,0,0-1.109,1.765l3.7,1.911Z" transform="translate(-143.223 -210.326)" fill="#edb04e"/>
      <path id="Path_238" data-name="Path 238" d="M224,328h2.076v4.152H224Z" transform="translate(-212.581 -294.783)" fill="#edb04e"/>
      <path id="Path_239" data-name="Path 239" d="M271.746,328.141v4.2a5.687,5.687,0,0,0-1.466-.187h-.61V328H270A10.688,10.688,0,0,1,271.746,328.141Z" transform="translate(-252.325 -294.783)" fill="#edb04e"/>
      <path id="Path_240" data-name="Path 240" d="M299.881,344.021l-2.953,2.9a6.256,6.256,0,0,0-1.618-1.322l3.014-2.962A10.488,10.488,0,0,1,299.881,344.021Z" transform="translate(-274.639 -307.524)" fill="#edb04e"/>
      <path id="Path_241" data-name="Path 241" d="M324.152,448.708v2.14L320,449.81v-2.14Z" transform="translate(-296.125 -398.926)" fill="#edb04e"/>
    </g>
  </g>
</svg>
