<svg xmlns="http://www.w3.org/2000/svg" width="62.878" height="62.878" viewBox="0 0 62.878 62.878">
  <g id="location" transform="translate(-0.001 0)">
    <rect id="Rectangle_319" data-name="Rectangle 319" width="61.032" height="61.032" transform="translate(0.925 1.046)" fill="#ffe88f"/>
    <g id="Group_506" data-name="Group 506" transform="translate(0.925 1.046)">
      <path id="Path_195" data-name="Path 195" d="M7.518,284.517v27.137H18.266V287.36Z" transform="translate(-7.518 -250.622)" fill="#56ace1"/>
      <path id="Path_196" data-name="Path 196" d="M153.043,20.118l4.786-11.6H135.112v6.855Z" transform="translate(-119.442 -8.521)" fill="#56ace1"/>
      <path id="Path_197" data-name="Path 197" d="M18.266,8.521H7.518v2.71l10.748,2.843Z" transform="translate(-7.518 -8.521)" fill="#56ace1"/>
      <path id="Path_198" data-name="Path 198" d="M135.112,318.264v22.993H158.73l6.23-15.1Z" transform="translate(-119.442 -280.225)" fill="#56ace1"/>
      <path id="Path_199" data-name="Path 199" d="M135.112,126.794l31.743,8.4,7.814-18.936-39.557-10.462Z" transform="translate(-119.442 -93.846)" fill="#56ace1"/>
      <path id="Path_200" data-name="Path 200" d="M325.518,8.521l-5.31,12.867,18.72,4.951,3.911-9.479V8.521Z" transform="translate(-281.807 -8.521)" fill="#56ace1"/>
    </g>
    <path id="Path_201" data-name="Path 201" d="M45.919,21.388l5.31-12.867H45.9l-4.786,11.6L23.188,15.376V8.521H18.266v5.553L7.518,11.231v5.091l10.748,2.843v21L7.518,37.324v5.091l10.748,2.843V69.553h4.922V46.56l29.849,7.895-6.23,15.1h5.325l5.706-13.828L68.55,58.558V53.467l-8.819-2.333L67.545,32.2l1,.266V16.86l-3.911,9.479ZM54.93,49.865l-31.743-8.4v-21L62.744,30.929Z" transform="translate(-6.593 -7.475)" fill="#eeeff2"/>
    <path id="Path_202" data-name="Path 202" d="M304.1,71.5a7.875,7.875,0,1,1,15.75,0c0,5.906-7.875,13.781-7.875,13.781S304.1,77.409,304.1,71.5Z" transform="translate(-266.748 -55.814)" fill="#3ac274"/>
    <path id="Path_203" data-name="Path 203" d="M306.064,73.431a7.865,7.865,0,0,1,3.406-6.483,7.877,7.877,0,0,0-5.374,7.467c0,5.906,7.875,13.781,7.875,13.781s.582-.582,1.429-1.548C311.623,84.745,306.064,78.394,306.064,73.431Z" transform="translate(-266.748 -58.726)" fill="#15b259"/>
    <circle id="Ellipse_77" data-name="Ellipse 77" cx="3.937" cy="3.937" r="3.937" transform="translate(41.284 11.751)" fill="#b6f1cf"/>
    <path id="Path_204" data-name="Path 204" d="M183.861,373.142a4.922,4.922,0,1,1,9.844,0c0,3.691-4.922,8.613-4.922,8.613S183.861,376.833,183.861,373.142Z" transform="translate(-161.28 -322.999)" fill="#3ac274"/>
    <path id="Path_205" data-name="Path 205" d="M185.83,372.768a4.916,4.916,0,0,1,2.25-4.133,4.922,4.922,0,0,0-4.219,4.871c0,3.691,4.922,8.613,4.922,8.613s.561-.562,1.3-1.447C188.745,379.178,185.83,375.609,185.83,372.768Z" transform="translate(-161.28 -323.363)" fill="#15b259"/>
    <circle id="Ellipse_78" data-name="Ellipse 78" cx="1.846" cy="1.846" r="1.846" transform="translate(25.657 48.297)" fill="#b6f1cf"/>
    <path id="Path_206" data-name="Path 206" d="M119.736,142.694a4.922,4.922,0,1,1,9.844,0c0,3.691-4.922,8.613-4.922,8.613S119.736,146.385,119.736,142.694Z" transform="translate(-105.03 -120.853)" fill="#3ac274"/>
    <path id="Path_207" data-name="Path 207" d="M121.706,142.448a4.923,4.923,0,0,1,3.337-4.659c-.127-.01-.254-.016-.384-.016a4.922,4.922,0,0,0-4.922,4.922c0,3.691,4.922,8.613,4.922,8.613s.457-.457,1.091-1.2C124.335,148.5,121.706,145.146,121.706,142.448Z" transform="translate(-105.031 -120.853)" fill="#15b259"/>
    <circle id="Ellipse_79" data-name="Ellipse 79" cx="1.846" cy="1.846" r="1.846" transform="translate(17.782 19.995)" fill="#b6f1cf"/>
    <path id="Path_208" data-name="Path 208" d="M333.5,97.9a4.86,4.86,0,1,1,4.86-4.86A4.866,4.866,0,0,1,333.5,97.9Zm0-7.875a3.015,3.015,0,1,0,3.015,3.015A3.018,3.018,0,0,0,333.5,90.022Z" transform="translate(-288.281 -77.347)"/>
    <path id="Path_209" data-name="Path 209" d="M182.192,376.086a.923.923,0,0,1-.653-.27c-.212-.212-5.192-5.238-5.192-9.266a5.845,5.845,0,0,1,11.69,0c0,4.027-4.98,9.054-5.192,9.266A.924.924,0,0,1,182.192,376.086Zm0-13.535a4,4,0,0,0-4,4c0,2.328,2.48,5.578,4,7.268,1.519-1.69,4-4.94,4-7.268A4,4,0,0,0,182.192,362.551Z" transform="translate(-154.689 -316.407)"/>
    <path id="Path_210" data-name="Path 210" d="M204.164,391.291a2.769,2.769,0,1,1,2.769-2.769A2.772,2.772,0,0,1,204.164,391.291Zm0-3.691a.923.923,0,1,0,.923.923A.924.924,0,0,0,204.164,387.6Z" transform="translate(-176.661 -338.38)"/>
    <path id="Path_211" data-name="Path 211" d="M128.284,8.67l17.931,4.743a.923.923,0,0,0,1.089-.54l4.786-11.6a.923.923,0,1,0-1.706-.7l-4.477,10.85L129.443,7.067V.923a.923.923,0,1,0-1.846,0V7.778A.923.923,0,0,0,128.284,8.67Z" transform="translate(-111.926 0)"/>
    <path id="Path_212" data-name="Path 212" d="M11.908,278.871,1.161,276.028a.923.923,0,1,0-.472,1.784l10.061,2.661v6.48a.923.923,0,1,0,1.846,0v-7.191A.923.923,0,0,0,11.908,278.871Z" transform="translate(0 -242.103)"/>
    <path id="Path_213" data-name="Path 213" d="M11.672,0a.923.923,0,0,0-.923.923V5.281L1.161,2.745A.923.923,0,1,0,.689,4.529L11.436,7.372A.923.923,0,0,0,12.6,6.479V.927A.923.923,0,0,0,11.672,0Z" transform="translate(0 -0.004)"/>
    <path id="Path_214" data-name="Path 214" d="M88.442,393.77a.923.923,0,0,0-.923.923v12.674a.923.923,0,0,0,1.846,0V394.693A.923.923,0,0,0,88.442,393.77Z" transform="translate(-76.77 -345.412)"/>
    <path id="Path_215" data-name="Path 215" d="M11.908,66.4,1.161,63.557a.923.923,0,1,0-.472,1.784L10.75,68V87.1L1.161,84.559a.923.923,0,1,0-.472,1.784l10.748,2.843a.923.923,0,0,0,1.159-.892v-21A.923.923,0,0,0,11.908,66.4Z" transform="translate(0 -55.725)"/>
    <path id="Path_216" data-name="Path 216" d="M114.109,33.871a.923.923,0,0,0,.687.892l31.743,8.4a.923.923,0,0,0,1.089-.54l7.814-18.936a.923.923,0,0,0-.617-1.244l-4.009-1.06A17.44,17.44,0,0,0,152,18.51l4.248,1.124a.923.923,0,0,0,1.089-.54l3.911-9.479a.923.923,0,1,0-1.706-.7l-3.6,8.732-3.547-.938a8.205,8.205,0,0,0,.067-1.015A8.8,8.8,0,0,0,141.5,7.16l2.429-5.885a.923.923,0,1,0-1.706-.7L139.08,8.18a8.8,8.8,0,0,0-4.218,7.509A8.614,8.614,0,0,0,135,17.2l-19.734-5.219a.923.923,0,0,0-1.159.892v4.675a5.83,5.83,0,0,0-1.888,4.3,10.279,10.279,0,0,0,1.888,5.133S114.109,33.871,114.109,33.871ZM143.66,8.737a6.96,6.96,0,0,1,6.952,6.952c0,4.492-5.109,10.441-6.952,12.441-1.843-2-6.952-7.948-6.952-12.441A6.96,6.96,0,0,1,143.66,8.737Zm-27.7,5.331,19.614,5.188c1.93,5.311,7.168,10.6,7.438,10.868a.923.923,0,0,0,1.305,0,42.442,42.442,0,0,0,5.57-7.082l3.451.913-7.1,17.214-30.275-8.008V29.484c.778.937,1.387,1.552,1.458,1.623a.923.923,0,0,0,1.305,0c.212-.212,5.192-5.239,5.192-9.266a5.841,5.841,0,0,0-7.956-5.449V14.068Zm2.111,3.775a4,4,0,0,1,4,4c0,2.328-2.48,5.578-4,7.268-1.519-1.69-4-4.94-4-7.268A4,4,0,0,1,118.066,17.842Z" transform="translate(-98.438 0)"/>
    <path id="Path_217" data-name="Path 217" d="M380.849,387.234,370.136,384.4a.923.923,0,0,0-1.089.54l-5.706,13.828a.923.923,0,1,0,1.706.7l5.4-13.082,9.932,2.627a.923.923,0,1,0,.472-1.785Z" transform="translate(-318.657 -337.166)"/>
    <path id="Path_218" data-name="Path 218" d="M435.138,214.1l-7.8-2.063,7.412-17.961a.923.923,0,1,0-1.706-.7l-7.814,18.936a.923.923,0,0,0,.617,1.244l8.819,2.332a.923.923,0,0,0,.472-1.784Z" transform="translate(-372.945 -169.126)"/>
    <path id="Path_219" data-name="Path 219" d="M159.2,318.155a.923.923,0,0,0-.591-.482l-29.849-7.895a.923.923,0,0,0-1.159.892v22.993a.923.923,0,0,0,1.846,0V311.869l27.671,7.319-5.828,14.123a.923.923,0,1,0,1.706.7l6.23-15.1A.924.924,0,0,0,159.2,318.155Z" transform="translate(-111.926 -271.708)"/>
    <path id="Path_220" data-name="Path 220" d="M140.039,160.843a2.769,2.769,0,1,1,2.769-2.769A2.772,2.772,0,0,1,140.039,160.843Zm0-3.692a.923.923,0,1,0,.923.923A.924.924,0,0,0,140.039,157.152Z" transform="translate(-120.411 -136.233)"/>
  </g>
</svg>
