<svg xmlns="http://www.w3.org/2000/svg" width="16.316" height="14.5" viewBox="0 0 16.316 14.5">
  <path id="Icon_awesome-edit" data-name="Icon awesome-edit" d="M11.4,2.361l2.555,2.555a.277.277,0,0,1,0,.391L7.773,11.493l-2.629.292a.551.551,0,0,1-.609-.609l.292-2.629,6.186-6.186A.277.277,0,0,1,11.4,2.361Zm4.589-.649L14.611.33a1.108,1.108,0,0,0-1.564,0l-1,1a.277.277,0,0,0,0,.391L14.6,4.279a.277.277,0,0,0,.391,0l1-1a1.108,1.108,0,0,0,0-1.564Zm-5.116,8.1v2.884H1.813V3.63H8.322a.348.348,0,0,0,.241-.1L9.7,2.4a.34.34,0,0,0-.241-.581H1.36A1.36,1.36,0,0,0,0,3.177v9.971a1.36,1.36,0,0,0,1.36,1.36H11.33a1.36,1.36,0,0,0,1.36-1.36V8.678a.341.341,0,0,0-.581-.241L10.976,9.57A.348.348,0,0,0,10.877,9.811Z" transform="translate(0 -0.007)" fill="#5c717c"/>
</svg>
