<svg xmlns="http://www.w3.org/2000/svg" width="15" height="18" viewBox="0 0 15 18">
  <g id="gas-station" transform="translate(-42.666)">
    <g id="Group_498" data-name="Group 498" transform="translate(42.666)">
      <path id="Path_153" data-name="Path 153" d="M57.556,2.36l-1.5-1.5a.375.375,0,0,0-.53.53l1.235,1.235L55.526,3.86a.375.375,0,0,0-.11.265V5.25a1.5,1.5,0,0,0,1.5,1.5v6.375a.375.375,0,1,1-.75,0v-.75a1.126,1.126,0,0,0-1.125-1.125h-.375V1.5a1.5,1.5,0,0,0-1.5-1.5h-7.5a1.5,1.5,0,0,0-1.5,1.5V15a1.5,1.5,0,0,0-1.5,1.5v1.125a.375.375,0,0,0,.375.375h12.75a.375.375,0,0,0,.375-.375V16.5a1.5,1.5,0,0,0-1.5-1.5V12h.375a.375.375,0,0,1,.375.375v.75a1.125,1.125,0,1,0,2.25,0V2.625A.375.375,0,0,0,57.556,2.36Zm-4.39,4.022a.375.375,0,0,1-.375.375h-6.75a.375.375,0,0,1-.375-.375V1.875a.375.375,0,0,1,.375-.375h6.75a.375.375,0,0,1,.375.375Z" transform="translate(-42.666 0)" fill="#050505"/>
    </g>
  </g>
</svg>
