<svg xmlns="http://www.w3.org/2000/svg" width="21" height="18.644" viewBox="0 0 21 18.644"><path d="M19.25,2.25H1.75a1.887,1.887,0,0,0-1.75,2v.666H21V4.248A1.887,1.887,0,0,0,19.25,2.25ZM0,18.9a1.887,1.887,0,0,0,1.75,2h17.5a1.887,1.887,0,0,0,1.75-2V6.245H0ZM12.833,9.241a.315.315,0,0,1,.292-.333h5.25a.315.315,0,0,1,.292.333v.666a.315.315,0,0,1-.292.333h-5.25a.315.315,0,0,1-.292-.333Zm0,2.663a.315.315,0,0,1,.292-.333h5.25a.315.315,0,0,1,.292.333v.666a.315.315,0,0,1-.292.333h-5.25a.315.315,0,0,1-.292-.333Zm0,2.663a.315.315,0,0,1,.292-.333h5.25a.315.315,0,0,1,.292.333v.666a.315.315,0,0,1-.292.333h-5.25a.315.315,0,0,1-.292-.333ZM6.417,8.909A2.517,2.517,0,0,1,8.75,11.572a2.517,2.517,0,0,1-2.333,2.663,2.517,2.517,0,0,1-2.333-2.663A2.517,2.517,0,0,1,6.417,8.909Zm-3.97,8.5a2.39,2.39,0,0,1,2.22-1.839h.3a3.329,3.329,0,0,0,2.9,0h.3a2.39,2.39,0,0,1,2.22,1.839.64.64,0,0,1-.569.824h-6.8A.642.642,0,0,1,2.446,17.407Z" transform="translate(0 -2.25)" fill="#4a4a4a"/></svg>