<svg xmlns="http://www.w3.org/2000/svg" width="18.043" height="18.043" viewBox="0 0 18.043 18.043">
  <path id="Icon_metro-my-location" data-name="Icon metro-my-location" d="M12.878,9.6a3.281,3.281,0,1,0,3.281,3.281A3.28,3.28,0,0,0,12.878,9.6Zm7.332,2.46A7.377,7.377,0,0,0,13.7,5.546V3.856h-1.64v1.69a7.377,7.377,0,0,0-6.512,6.512H3.856V13.7h1.69a7.377,7.377,0,0,0,6.512,6.512V21.9H13.7V20.21A7.377,7.377,0,0,0,20.21,13.7H21.9v-1.64H20.21Zm-7.332,6.561a5.741,5.741,0,1,1,5.741-5.741A5.742,5.742,0,0,1,12.878,18.619Z" transform="translate(-3.856 -3.856)" fill="#fff"/>
</svg>
