<svg xmlns="http://www.w3.org/2000/svg" width="20.641" height="20.641" viewBox="0 0 20.641 20.641"><path d="M10.321.563A10.321,10.321,0,1,0,20.641,10.883,10.319,10.319,0,0,0,10.321.563Zm0,4A3.662,3.662,0,1,1,6.659,8.22,3.662,3.662,0,0,1,10.321,4.558Zm0,14.316a7.975,7.975,0,0,1-6.1-2.838,4.64,4.64,0,0,1,4.1-2.489,1.018,1.018,0,0,1,.3.046,5.51,5.51,0,0,0,1.7.287,5.489,5.489,0,0,0,1.7-.287,1.018,1.018,0,0,1,.3-.046,4.64,4.64,0,0,1,4.1,2.489A7.975,7.975,0,0,1,10.321,18.873Z" transform="translate(0 -0.563)" fill="#4a4a4a"/></svg>