<svg xmlns="http://www.w3.org/2000/svg" width="22.682" height="24.744" viewBox="0 0 22.682 24.744">
  <path id="Icon_material-local-gas-station" data-name="Icon material-local-gas-station" d="M27.678,10.315l.014-.014L22.578,5.187,21.121,6.644l2.9,2.9a3.432,3.432,0,0,0,1.223,6.64A3.514,3.514,0,0,0,26.62,15.9v9.911a1.375,1.375,0,1,1-2.749,0V19.621a2.757,2.757,0,0,0-2.749-2.749H19.746V7.249A2.757,2.757,0,0,0,17,4.5H8.749A2.757,2.757,0,0,0,6,7.249V29.244H19.746V18.934h2.062v6.873a3.437,3.437,0,1,0,6.873,0V12.748A3.439,3.439,0,0,0,27.678,10.315ZM17,14.123H8.749V7.249H17Zm8.248,0a1.375,1.375,0,1,1,1.375-1.375A1.379,1.379,0,0,1,25.245,14.123Z" transform="translate(-6 -4.5)" fill="#050505"/>
</svg>
