<svg xmlns="http://www.w3.org/2000/svg" width="12.5" height="10.938" viewBox="0 0 12.5 10.938">
  <path id="Icon_awesome-camera" data-name="Icon awesome-camera" d="M12.5,4.984v7.031a1.172,1.172,0,0,1-1.172,1.172H1.172A1.172,1.172,0,0,1,0,12.016V4.984A1.172,1.172,0,0,1,1.172,3.813H3.32l.3-.8a1.17,1.17,0,0,1,1.1-.759H7.781a1.17,1.17,0,0,1,1.1.759l.3.8h2.148A1.172,1.172,0,0,1,12.5,4.984ZM9.18,8.5a2.93,2.93,0,1,0-2.93,2.93A2.932,2.932,0,0,0,9.18,8.5ZM8.4,8.5A2.148,2.148,0,1,1,6.25,6.352,2.152,2.152,0,0,1,8.4,8.5Z" transform="translate(0 -2.25)" fill="#fff"/>
</svg>
