<svg width="130" height="130" viewBox="0 0 130 130" fill="none" xmlns="http://www.w3.org/2000/svg">
<g clip-path="url(#clip0)">
<path d="M45.6556 101.92L26.2611 112.499C25.123 113.12 24.1001 113.882 23.1484 114.714C34.456 124.248 49.0528 130 65.0011 130C80.8317 130 95.3352 124.334 106.611 114.93C105.571 114.052 104.443 113.262 103.192 112.639L82.4235 102.256C79.7401 100.914 78.0452 98.1721 78.0452 95.1723V87.024C78.629 86.3593 79.2962 85.5057 80.01 84.4976C82.8405 80.4995 84.9818 76.1016 86.4658 71.4878C89.1296 70.6661 91.0918 68.2059 91.0918 65.2821V56.5844C91.0918 54.6712 90.2407 52.9615 88.9186 51.7646V39.1914C88.9186 39.1914 91.5015 19.6251 65.0035 19.6251C38.5056 19.6251 41.0884 39.1914 41.0884 39.1914V51.7646C39.7639 52.9615 38.9152 54.6712 38.9152 56.5844V65.2821C38.9152 67.5731 40.1196 69.5893 41.9224 70.7544C44.0956 80.2149 49.7862 87.024 49.7862 87.024V94.9712C49.7837 97.8655 48.1992 100.532 45.6556 101.92Z" fill="#E7ECED"/>
<path d="M66.111 0.00973267C30.2187 -0.603475 0.622893 27.9965 0.00968567 63.8888C-0.338616 84.2399 8.73195 102.531 23.1742 114.694C24.1186 113.87 25.1316 113.115 26.2574 112.501L45.652 101.922C48.1955 100.534 49.7801 97.8678 49.7801 94.9686V87.0214C49.7801 87.0214 44.0871 80.2124 41.9163 70.7518C40.1159 69.5867 38.9091 67.5729 38.9091 65.2795V56.5818C38.9091 54.6686 39.7603 52.959 41.0823 51.762V39.1888C41.0823 39.1888 38.4995 19.6226 64.9974 19.6226C91.4954 19.6226 88.9125 39.1888 88.9125 39.1888V51.762C90.2371 52.959 91.0857 54.6686 91.0857 56.5818V65.2795C91.0857 68.2033 89.1235 70.6635 86.4597 71.4852C84.9757 76.099 82.8344 80.4969 80.0039 84.495C79.2901 85.5031 78.6229 86.3567 78.0391 87.0214V95.1697C78.0391 98.1695 79.734 100.914 82.4174 102.254L103.186 112.636C104.432 113.259 105.557 114.047 106.595 114.922C120.601 103.242 129.649 85.7778 129.985 66.111C130.603 30.2188 102.006 0.62294 66.111 0.00973267Z" fill="#333333"/>
</g>
<defs>
<clipPath id="clip0">
<rect width="130" height="130" fill="white"/>
</clipPath>
</defs>
</svg>
