<svg width="25" height="25" viewBox="0 0 25 25" fill="none" xmlns="http://www.w3.org/2000/svg">
<path d="M1.00012 11.751C0.986947 12.9638 1.38135 14.146 2.12012 15.108C2.84884 16.0839 3.87509 16.7963 5.04412 17.138L4.29712 19.038C4.26312 19.196 4.32012 19.287 4.45512 19.287H6.86512L5.75612 24.153H6.07312L10.5091 17.646C10.5298 17.6255 10.5424 17.5981 10.5444 17.5691C10.5464 17.54 10.5378 17.5112 10.5201 17.488C10.5019 17.4604 10.4763 17.4384 10.4463 17.4245C10.4163 17.4105 10.383 17.4052 10.3501 17.409H7.88112L10.6881 12.158C10.7671 12 10.7111 11.909 10.5301 11.909H7.20212C7.1474 11.9109 7.09424 11.9277 7.04841 11.9577C7.00258 11.9877 6.96582 12.0296 6.94212 12.079L5.73112 15.327C4.93623 15.1257 4.23193 14.6633 3.73112 14.014C3.20981 13.3713 2.92965 12.5665 2.93912 11.739C2.92723 10.8262 3.27244 9.94487 3.90112 9.28298C4.52006 8.604 5.365 8.17353 6.27812 8.07199L6.87812 7.99299C7.02512 7.99299 7.10412 7.92499 7.10412 7.79299L7.18312 7.21599C7.30142 6.03146 7.85565 4.93316 8.73822 4.1343C9.62078 3.33545 10.7687 2.89305 11.9591 2.89299C13.1493 2.89982 14.2956 3.34276 15.1811 4.13797C16.0666 4.93317 16.6298 6.02544 16.7641 7.20799L16.8431 7.86399C16.8431 7.98799 16.9111 8.05599 17.0431 8.05599H18.8541C19.3417 8.04806 19.8257 8.13926 20.277 8.32405C20.7282 8.50884 21.1372 8.78337 21.4791 9.13099C22.1646 9.79292 22.5592 10.6999 22.5763 11.6526C22.5933 12.6054 22.2314 13.5259 21.5701 14.212C20.9193 14.9058 20.0293 15.3265 19.0801 15.389C18.9331 15.389 18.8541 15.457 18.8541 15.589V17.139C18.8541 17.263 18.9331 17.331 19.0801 17.331C20.5337 17.2799 21.9106 16.6658 22.9199 15.6185C23.9291 14.5711 24.4918 13.1725 24.4891 11.718C24.4985 10.7271 24.2364 9.75248 23.7311 8.89999C23.2411 8.05148 22.5343 7.34848 21.6831 6.86299C20.823 6.36768 19.8467 6.10988 18.8541 6.11599H18.5031C18.1405 4.65247 17.2983 3.35252 16.1108 2.42346C14.9233 1.49441 13.4589 0.98975 11.9511 0.989986C10.409 0.983684 8.91096 1.50414 7.70493 2.46522C6.49891 3.42629 5.6572 4.77037 5.31912 6.27499C4.08642 6.56258 2.9877 7.25975 2.20248 8.25257C1.41727 9.2454 0.991984 10.4752 0.996124 11.741L1.00012 11.751ZM10.2121 22.739C10.2 22.9385 10.2594 23.1358 10.3796 23.2954C10.4998 23.455 10.673 23.5666 10.8681 23.61C10.9097 23.6102 10.9512 23.6139 10.9921 23.621C11.0444 23.6292 11.0972 23.6328 11.1501 23.632C11.3476 23.63 11.5404 23.5709 11.7051 23.462C11.7992 23.4008 11.8798 23.3211 11.942 23.2278C12.0043 23.1344 12.0468 23.0293 12.0671 22.919L14.6131 13.085C14.6489 12.9631 14.6604 12.8354 14.6468 12.7091C14.6333 12.5828 14.595 12.4605 14.5341 12.349C14.4734 12.2419 14.3922 12.1478 14.2951 12.0721C14.1979 11.9964 14.0868 11.9407 13.9681 11.908L13.6741 11.874C13.4838 11.8763 13.2985 11.9355 13.1421 12.044C12.9645 12.1627 12.839 12.3448 12.7911 12.553L10.2341 22.422C10.2231 22.536 10.2121 22.637 10.2121 22.739ZM14.9201 19.276C14.9187 19.4268 14.9577 19.5753 15.0331 19.706C15.1628 19.9335 15.3664 20.11 15.6101 20.206C15.7205 20.2397 15.8348 20.2589 15.9501 20.263C16.0762 20.2613 16.2002 20.2301 16.3121 20.172C16.4376 20.1109 16.5464 20.0204 16.6291 19.908C16.7118 19.7957 16.7661 19.6649 16.7871 19.527L18.4161 13.108C18.442 13.0074 18.461 12.9051 18.4731 12.802C18.4697 12.6172 18.4062 12.4385 18.2921 12.293C18.1639 12.1174 17.9804 11.9899 17.7711 11.931L17.4771 11.897C17.2863 11.8958 17.0999 11.9553 16.9451 12.067C16.7775 12.1933 16.6576 12.3727 16.6051 12.576L14.9531 19.027C14.9533 19.0686 14.9496 19.1101 14.9421 19.151C14.9256 19.1905 14.9181 19.2332 14.9201 19.276Z" fill="white"/>
</svg>
