<svg xmlns="http://www.w3.org/2000/svg" width="23.493" height="23.154" viewBox="0 0 23.493 23.154">
  <path id="Icon_weather-thunderstorm" data-name="Icon weather-thunderstorm" d="M5.556,19.643A5.415,5.415,0,0,0,6.676,23,5.615,5.615,0,0,0,9.6,25.03l-.747,1.9c-.034.158.023.249.158.249h2.41l-1.109,4.866h.317l4.436-6.507a.12.12,0,0,0,.011-.158.179.179,0,0,0-.17-.079H12.437l2.807-5.251c.079-.158.023-.249-.158-.249H11.758a.3.3,0,0,0-.26.17l-1.211,3.248a3.661,3.661,0,0,1-2-1.313,3.547,3.547,0,0,1-.792-2.275,3.5,3.5,0,0,1,.962-2.456,3.782,3.782,0,0,1,2.377-1.211l.6-.079c.147,0,.226-.068.226-.2l.079-.577a4.8,4.8,0,0,1,4.776-4.323A4.864,4.864,0,0,1,21.32,15.1l.079.656c0,.124.068.192.2.192h1.811a3.6,3.6,0,0,1,2.625,1.075,3.595,3.595,0,0,1,.091,5.081,3.752,3.752,0,0,1-2.49,1.177c-.147,0-.226.068-.226.2v1.55c0,.124.079.192.226.192a5.606,5.606,0,0,0,5.409-5.613,5.426,5.426,0,0,0-.758-2.818,5.528,5.528,0,0,0-2.048-2.037,5.6,5.6,0,0,0-2.829-.747h-.351a6.749,6.749,0,0,0-6.552-5.126,6.769,6.769,0,0,0-6.632,5.285,5.594,5.594,0,0,0-4.323,5.466Zm9.212,10.988a.84.84,0,0,0,.656.871.748.748,0,0,1,.124.011.924.924,0,0,0,.158.011,1.025,1.025,0,0,0,.555-.17.826.826,0,0,0,.362-.543l2.546-9.834a.967.967,0,0,0-.079-.736.936.936,0,0,0-.566-.441l-.294-.034a.954.954,0,0,0-.532.17.838.838,0,0,0-.351.509L14.79,30.314C14.779,30.428,14.768,30.529,14.768,30.631Zm4.708-3.463a.844.844,0,0,0,.113.43,1.149,1.149,0,0,0,.577.5,1.327,1.327,0,0,0,.34.057.809.809,0,0,0,.362-.091.862.862,0,0,0,.475-.645L22.972,21a2.32,2.32,0,0,0,.057-.306.85.85,0,0,0-.181-.509.971.971,0,0,0-.521-.362l-.294-.034a.9.9,0,0,0-.532.17.928.928,0,0,0-.34.509l-1.652,6.451a.672.672,0,0,1-.011.124A.289.289,0,0,0,19.476,27.168Z" transform="translate(-5.556 -8.892)" fill="#5c717c"/>
</svg>
