<svg xmlns="http://www.w3.org/2000/svg" width="36.721" height="21.697" viewBox="0 0 36.721 21.697"><path d="M3.72,24.388a1.429,1.429,0,0,0,.432,1.055,1.158,1.158,0,0,0,.972.476H27.789a1.457,1.457,0,0,1,1.126.511,1.815,1.815,0,0,1,.463,1.259,1.7,1.7,0,0,1-.463,1.225,1.508,1.508,0,0,1-1.142.493,1.475,1.475,0,0,1-1.126-.493,1.126,1.126,0,0,0-.926-.442,1.324,1.324,0,0,0-.987.442,1.465,1.465,0,0,0-.417,1.038,1.44,1.44,0,0,0,.432,1.072,4.023,4.023,0,0,0,3.024,1.412,4.11,4.11,0,0,0,3.1-1.378,4.683,4.683,0,0,0,1.281-3.352,4.876,4.876,0,0,0-1.3-3.4,4.038,4.038,0,0,0-3.086-1.429H5.124a1.324,1.324,0,0,0-.987.442A1.488,1.488,0,0,0,3.72,24.388Zm0-5.582a1.445,1.445,0,0,0,.432,1.038,1.214,1.214,0,0,0,.972.442h30.92a4.068,4.068,0,0,0,3.1-1.4,4.724,4.724,0,0,0,1.3-3.352,4.834,4.834,0,0,0-1.3-3.386,4.085,4.085,0,0,0-3.1-1.412A3.913,3.913,0,0,0,33.035,12.1a1.515,1.515,0,0,0-.417,1.14,1.485,1.485,0,0,0,.4,1.072,1.3,1.3,0,0,0,.972.408,1.345,1.345,0,0,0,.972-.408,1.332,1.332,0,0,1,1.08-.528,1.457,1.457,0,0,1,1.126.511,1.773,1.773,0,0,1,.463,1.242,1.7,1.7,0,0,1-.463,1.225,1.5,1.5,0,0,1-1.126.493H5.124a1.324,1.324,0,0,0-.987.442A1.629,1.629,0,0,0,3.72,18.806Z" transform="translate(-3.72 -10.74)" fill="#fff"/></svg>